<svg width="32" height="32" viewBox="0 0 32 32" fill="none" xmlns="http://www.w3.org/2000/svg">
<path d="M0 0.900002H5.31696C5.42056 0.900002 5.50558 0.962755 5.515 1.06593C5.71189 3.22367 7.82 25.7 10.2 25.7C14.2 25.7 29 25.7 29 25.7" stroke="white" stroke-width="1.8"/>
<path d="M6 6.89999C6 6.89999 23.5 6.9 29 6.89999C32.5 6.89999 31.5 22.4 24.5 22.4C23 22.4 8.5 22.4 8.5 22.4" stroke="white" stroke-width="1.8"/>
<path d="M6.5 14.4H22.6M30.5 14.4H22.6M22.6 14.4V6.9V22.2C22.6 22.3105 22.5105 22.4 22.4 22.4H15.4C15.2895 22.4 15.2 22.3105 15.2 22.2V6.9" stroke="white" stroke-width="1.8"/>
<path d="M15.5432 28.05C15.5432 29.2926 14.5358 30.3 13.2932 30.3C12.0505 30.3 11.0432 29.2926 11.0432 28.05C11.0432 26.8074 12.0505 25.8 13.2932 25.8C14.5358 25.8 15.5432 26.8074 15.5432 28.05Z" stroke="white" stroke-width="1.8"/>
<path d="M27.2 28.05C27.2 29.2926 26.1926 30.3 24.95 30.3C23.7074 30.3 22.7 29.2926 22.7 28.05C22.7 26.8074 23.7074 25.8 24.95 25.8C26.1926 25.8 27.2 26.8074 27.2 28.05Z" stroke="white" stroke-width="1.8"/>
</svg>
