<svg width="34" height="32" viewBox="0 0 34 32" fill="none" xmlns="http://www.w3.org/2000/svg">
<path d="M30.2998 0C32.0671 0 33.5 1.43288 33.5 3.2002V27.0996C33.5 27.6227 33.373 28.1157 33.1504 28.5518L31.5 26.7363V23.9004H30.5752C30.8974 23.2714 31.1513 22.6018 31.3252 21.9004H31.5V21.0117C31.5651 20.5671 31.6006 20.1122 31.6006 19.6494C31.6006 19.1863 31.5651 18.7312 31.5 18.2861V17.2002H31.2734C31.0831 16.4975 30.8154 15.8269 30.4756 15.2002H31.5V10.2002H26V11.085C25.3667 10.8073 24.6973 10.5979 24 10.4658V10.2002H17.5V11.5967C16.7618 12.033 16.0897 12.5682 15.5 13.1836V10.2002H9.5V15.2002H14.0244C13.6847 15.8269 13.4169 16.4975 13.2266 17.2002H9.5V21.9004H13.1748C13.3482 22.6018 13.6011 23.2714 13.9229 23.9004H9.5V28.2998H15.5V26.1152C16.0897 26.7308 16.7618 27.2657 17.5 27.7021V28.2998H18.6973C19.7927 28.7503 20.9922 28.9999 22.25 29C23.5841 28.9999 24.852 28.7181 26 28.2139V28.2998H27.5156L29.334 30.2998H3.2002C1.43288 30.2998 0 28.8669 0 27.0996V3.2002C0 1.43288 1.43288 0 3.2002 0H30.2998ZM2 27.0996C2 27.7624 2.53745 28.2998 3.2002 28.2998H7.5V23.9004H2V27.0996ZM24 14.5938C25.305 15.0454 26.3799 15.9877 27.0059 17.2002H26V21.9004H27.1035C26.4958 23.2086 25.3754 24.2288 24 24.7051V23.9004H19.0029C17.7251 22.9226 16.9004 21.3826 16.9004 19.6494C16.9006 17.7939 17.8455 16.1597 19.2803 15.2002H24V14.5938ZM2 21.9004H7.5V17.2002H2V21.9004ZM17.5 21.9004H24V17.2002H17.5V21.9004ZM2 15.2002H7.5V10.2002H2V15.2002ZM3.2002 2C2.53745 2 2 2.53745 2 3.2002V8.2002H31.5V3.2002C31.5 2.53745 30.9625 2 30.2998 2H3.2002Z" fill="white"/>
<path d="M27.4 25.2L32.4 30.7M29.6 19.65C29.6 23.7093 26.3093 27 22.25 27C18.1907 27 14.9 23.7093 14.9 19.65C14.9 15.5907 18.1907 12.3 22.25 12.3C26.3093 12.3 29.6 15.5907 29.6 19.65Z" stroke="white" stroke-width="2" stroke-linecap="round"/>
</svg>
