<svg width="34" height="31" viewBox="0 0 34 31" fill="none" xmlns="http://www.w3.org/2000/svg">
<path d="M1 9.2V3.2C1 1.98497 1.98497 1 3.2 1H7H30.3C31.515 1 32.5 1.98497 32.5 3.2V9.2M1 9.2V16.2M1 9.2H8.8M32.5 9.2V16.2M32.5 9.2H25M32.5 16.2H1M32.5 16.2V22.9M1 16.2V22.9M1 22.9V27.1C1 28.315 1.98497 29.3 3.2 29.3H8.8M1 22.9H32.5M32.5 22.9V27.1C32.5 28.315 31.515 29.3 30.3 29.3H25M8.8 9.2V29.3M8.8 9.2H16.5M8.8 29.3H16.5M16.5 9.2V29.3M16.5 9.2H25M16.5 29.3H25M25 9.2V29.3" stroke="white" stroke-width="2" stroke-linecap="round"/>
</svg>
