<svg width="18" height="18" viewBox="0 0 18 18" fill="none" xmlns="http://www.w3.org/2000/svg">
<g clip-path="url(#clip0_790_42320)">
<mask id="mask0_790_42320" style="mask-type:luminance" maskUnits="userSpaceOnUse" x="0" y="0" width="18" height="18">
<path d="M18 0H0V18H18V0Z" fill="white"/>
</mask>
<g mask="url(#mask0_790_42320)">
<rect x="1.74292" y="3" width="14" height="14" rx="2.33333" fill="white" fill-opacity="0.7"/>
<path d="M4.07617 12.6247C4.07617 11.8384 4.07617 11.4452 4.25315 11.1565C4.35218 10.9949 4.48805 10.859 4.64964 10.76C4.93845 10.583 5.33158 10.583 6.11785 10.583C6.90413 10.583 7.29726 10.583 7.58606 10.76C7.74766 10.859 7.88353 10.9949 7.98256 11.1565C8.15953 11.4452 8.15953 11.8384 8.15953 12.6247C8.15953 13.4109 8.15953 13.8041 7.98256 14.0929C7.88353 14.2545 7.74766 14.3903 7.58606 14.4894C7.29726 14.6663 6.90413 14.6663 6.11785 14.6663C5.33158 14.6663 4.93845 14.6663 4.64964 14.4894C4.48805 14.3903 4.35218 14.2545 4.25315 14.0929C4.07617 13.8041 4.07617 13.4109 4.07617 12.6247Z" fill="#49A84C"/>
<path d="M9.32617 12.6247C9.32617 11.8384 9.32617 11.4452 9.50313 11.1565C9.60216 10.9949 9.73803 10.859 9.89963 10.76C10.1884 10.583 10.5816 10.583 11.3679 10.583C12.1541 10.583 12.5473 10.583 12.8361 10.76C12.9977 10.859 13.1335 10.9949 13.2326 11.1565C13.4095 11.4452 13.4095 11.8384 13.4095 12.6247C13.4095 13.4109 13.4095 13.8041 13.2326 14.0929C13.1335 14.2545 12.9977 14.3903 12.8361 14.4894C12.5473 14.6663 12.1541 14.6663 11.3679 14.6663C10.5816 14.6663 10.1884 14.6663 9.89963 14.4894C9.73803 14.3903 9.60216 14.2545 9.50313 14.0929C9.32617 13.8041 9.32617 13.4109 9.32617 12.6247Z" fill="#E2432E"/>
<path d="M4.07617 7.37466C4.07617 6.5884 4.07617 6.19527 4.25315 5.90647C4.35218 5.74488 4.48805 5.60901 4.64964 5.50998C4.93845 5.33301 5.33158 5.33301 6.11785 5.33301C6.90412 5.33301 7.29726 5.33301 7.58606 5.50998C7.74766 5.60901 7.88353 5.74488 7.98256 5.90647C8.15953 6.19527 8.15953 6.5884 8.15953 7.37466C8.15953 8.16092 8.15953 8.55405 7.98256 8.84285C7.88353 9.00444 7.74766 9.14031 7.58606 9.23934C7.29726 9.41631 6.90412 9.41631 6.11785 9.41631C5.33158 9.41631 4.93845 9.41631 4.64964 9.23934C4.48805 9.14031 4.35218 9.00444 4.25315 8.84285C4.07617 8.55405 4.07617 8.16092 4.07617 7.37466Z" fill="#4D86F9"/>
<path d="M11.3679 5.91602L11.4753 6.20644C11.6163 6.58727 11.6867 6.77768 11.8256 6.91659C11.9646 7.05549 12.155 7.12595 12.5358 7.26687L12.8262 7.37434L12.5358 7.4818C12.155 7.62272 11.9646 7.69319 11.8256 7.83209C11.6867 7.97099 11.6163 8.16141 11.4753 8.54223L11.3679 8.83266L11.2604 8.54223C11.1195 8.16141 11.0491 7.97099 10.9101 7.83209C10.7712 7.69319 10.5808 7.62272 10.2 7.4818L9.90955 7.37434L10.2 7.26687C10.5808 7.12595 10.7712 7.05549 10.9101 6.91659C11.0491 6.77768 11.1195 6.58727 11.2604 6.20644L11.3679 5.91602Z" fill="#FFD321" stroke="#FFD321" stroke-width="1.16667" stroke-linecap="round" stroke-linejoin="round"/>
<path d="M15.6673 1H4.33267C3.04437 1 2 2.04437 2 3.33267C2 4.62097 3.04437 5.66534 4.33267 5.66534H15.6673C16.9556 5.66534 18 4.62097 18 3.33267C18 2.04437 16.9556 1 15.6673 1Z" fill="#FF0000"/>
<path d="M15.5452 1.61328L14.6366 5.05111H13.7784L13.2078 2.84553C13.1774 2.73045 13.1591 2.6018 13.1527 2.45955H13.1431C13.1287 2.61618 13.1079 2.74484 13.0807 2.84553L12.4958 5.05111H11.6016L10.6978 1.61328H11.544L12.0283 3.90277C12.0491 4.00026 12.0643 4.13132 12.0738 4.29594H12.0882C12.0946 4.17287 12.1178 4.03862 12.1578 3.89318L12.7811 1.61328H13.6106L14.1739 3.92195C14.1947 4.00665 14.2131 4.12972 14.2291 4.29114H14.2387C14.2451 4.16488 14.2618 4.03702 14.289 3.90756L14.7637 1.61328H15.5452Z" fill="white"/>
<path d="M10.3957 5.05111H8.33398V1.61328H10.3166V2.24379H9.10833V3.00855H10.2327V3.63666H9.10833V4.423H10.3957V5.05111Z" fill="white"/>
<path d="M7.54756 5.05111H6.76602L5.34917 2.89108C5.26607 2.76482 5.20853 2.66972 5.17656 2.60579H5.16697C5.17976 2.72726 5.18615 2.91265 5.18615 3.16198V5.05111H4.45496V1.61328H5.28924L6.65334 3.70618C6.71567 3.80048 6.77321 3.89398 6.82595 3.98668H6.83554C6.82276 3.90676 6.81636 3.74934 6.81636 3.51439V1.61328H7.54756V5.05111Z" fill="white"/>
</g>
</g>
<defs>
<clipPath id="clip0_790_42320">
<rect width="18" height="18" fill="white"/>
</clipPath>
</defs>
</svg>
