<svg width="38" height="38" viewBox="0 0 38 38" fill="none" xmlns="http://www.w3.org/2000/svg">
<circle cx="19" cy="19" r="19" fill="#EAEAEA"/>
<g clip-path="url(#clip0_1350_32770)">
<path d="M18.842 18.5947C20.3089 18.5947 21.5792 18.0686 22.6171 17.0306C23.6549 15.9927 24.1811 14.7228 24.1811 13.2557C24.1811 11.7891 23.6549 10.519 22.6169 9.48082C21.5788 8.44312 20.3088 7.91699 18.842 7.91699C17.3749 7.91699 16.105 8.44312 15.0671 9.48099C14.0292 10.5189 13.5029 11.7889 13.5029 13.2557C13.5029 14.7228 14.0292 15.9929 15.0673 17.0307C16.1053 18.0684 17.3754 18.5947 18.842 18.5947Z" fill="#D3D3D3"/>
<path d="M28.1843 24.9617C28.1544 24.5298 28.0938 24.0586 28.0047 23.5611C27.9147 23.0598 27.7989 22.5859 27.6602 22.1528C27.517 21.7052 27.3221 21.2631 27.0813 20.8395C26.8313 20.3998 26.5378 20.0169 26.2083 19.7018C25.8638 19.3722 25.442 19.1072 24.9543 18.9139C24.4683 18.7216 23.9296 18.6242 23.3534 18.6242C23.1271 18.6242 22.9083 18.717 22.4857 18.9922C22.2256 19.1618 21.9213 19.358 21.5817 19.575C21.2914 19.76 20.898 19.9333 20.4121 20.0903C19.9381 20.2437 19.4568 20.3215 18.9817 20.3215C18.5067 20.3215 18.0255 20.2437 17.551 20.0903C17.0656 19.9335 16.6722 19.7602 16.3822 19.5751C16.0458 19.3602 15.7414 19.164 15.4774 18.992C15.0553 18.7169 14.8363 18.624 14.61 18.624C14.0337 18.624 13.4952 18.7216 13.0093 18.9141C12.5219 19.107 12.1 19.372 11.7551 19.702C11.4259 20.0172 11.1321 20.3999 10.8825 20.8395C10.6418 21.2631 10.447 21.705 10.3036 22.153C10.1651 22.5861 10.0492 23.0598 9.95926 23.5611C9.87014 24.0579 9.80959 24.5293 9.77966 24.9622C9.75023 25.3864 9.73535 25.8266 9.73535 26.2712C9.73535 27.4283 10.1032 28.365 10.8285 29.0559C11.5449 29.7376 12.4928 30.0834 13.6455 30.0834H24.3189C25.4716 30.0834 26.4192 29.7378 27.1358 29.0559C27.8613 28.3655 28.2291 27.4286 28.2291 26.271C28.2289 25.8244 28.2139 25.3838 28.1843 24.9617Z" fill="#D3D3D3"/>
</g>
<defs>
<clipPath id="clip0_1350_32770">
<rect width="22.1667" height="22.1667" fill="white" transform="translate(7.91699 7.91699)"/>
</clipPath>
</defs>
</svg>
