<svg width="18" height="18" viewBox="0 0 18 18" fill="none" xmlns="http://www.w3.org/2000/svg">
<g clip-path="url(#clip0_699_44177)">
<circle cx="8.51426" cy="9.98594" r="8.01426" fill="white"/>
<mask id="mask0_699_44177" style="mask-type:luminance" maskUnits="userSpaceOnUse" x="1" y="2" width="15" height="16">
<path d="M1.16797 9.98563C1.16797 14.0429 4.45707 17.332 8.51437 17.332C12.5717 17.332 15.8608 14.0429 15.8608 9.98563C15.8608 5.92832 12.5717 2.63922 8.51437 2.63922C4.45707 2.63922 1.16797 5.92832 1.16797 9.98563Z" fill="white"/>
</mask>
<g mask="url(#mask0_699_44177)">
<path d="M15.8608 9.98563C15.8608 14.0429 12.5717 17.332 8.51437 17.332C4.45707 17.332 1.16797 14.0429 1.16797 9.98563C1.16797 5.92832 4.45707 2.63922 8.51437 2.63922C12.5717 2.63922 15.8608 5.92832 15.8608 9.98563Z" fill="#5E6BD3"/>
<path d="M8.10617 19.7907C8.00328 20.0097 7.79196 20.1768 7.54989 20.2116C6.8713 20.2809 6.64516 19.4869 7.05724 19.1382C7.06262 19.1032 7.06673 19.0667 7.07096 19.028C7.08863 18.8422 7.08972 18.6549 7.08574 18.4627C7.08351 18.3677 7.07915 18.2628 7.07374 18.1673L7.06787 18.073L7.0668 18.0537C7.04651 17.4224 7.93085 17.3118 8.06912 17.9245C8.12807 18.2201 8.17627 18.51 8.20407 18.8133C8.22833 19.136 8.25099 19.4822 8.10617 19.7907Z" fill="#FEDDD6"/>
<path d="M8.75779 19.735C8.84025 19.9624 9.03542 20.1482 9.27327 20.2049C9.94272 20.3359 10.2405 19.566 9.86195 19.181C9.85979 19.1457 9.85906 19.1089 9.85836 19.07C9.85774 18.8834 9.8738 18.6968 9.89528 18.5058C9.90622 18.4113 9.92015 18.3073 9.93425 18.2127L9.94872 18.1194L9.95156 18.1002C10.0294 17.4734 9.15891 17.2825 8.96522 17.88C8.87951 18.169 8.80502 18.4533 8.74963 18.7527C8.69598 19.0718 8.64178 19.4145 8.75779 19.735Z" fill="#FEDDD6"/>
<path d="M11.4664 17.2243C11.643 16.8983 11.7104 16.4302 11.7104 16.4302C11.7633 17.0392 11.6242 17.2102 11.4664 17.2243ZM4.87158 16.3196C4.87158 16.3196 4.92375 16.7897 5.08974 17.1213C4.93245 17.1021 4.79904 16.9266 4.87158 16.3196ZM13.4477 16.247C13.3297 15.9871 12.7038 14.6882 12.9829 12.3485C13.0716 11.606 13.0368 10.8871 12.9481 10.2519C12.9778 10.084 12.9945 9.91235 12.9973 9.73783C13.0317 7.61182 11.0031 5.8551 8.46632 5.8141C5.92957 5.77307 3.84526 7.46334 3.81088 9.58935C3.80823 9.75376 3.81787 9.91601 3.83923 10.0754C3.72681 10.7145 3.66604 11.4424 3.73159 12.199C3.93497 14.5465 3.26736 15.8245 3.1411 16.0804C3.01498 16.3363 3.15164 17.0697 3.54237 17.0138C3.9331 16.9579 3.97711 16.8308 3.97711 16.8308C3.97711 16.8308 3.50701 16.9843 3.75222 16.1237C3.75222 16.1237 4.30496 16.5647 4.2094 16.9183C4.11366 17.272 3.64975 17.261 3.64975 17.261C3.64975 17.261 4.40317 17.6333 4.54185 17.2415C4.61793 17.3585 4.72437 17.4338 4.87218 17.4312C5.04542 17.4283 5.16807 17.3966 5.25456 17.3514C5.31203 17.403 5.37758 17.4358 5.45194 17.4409C5.91105 17.4721 5.77522 17.4461 5.77522 17.4461C5.77522 17.4461 5.58169 17.3378 5.45584 17.0738C5.46225 17.0202 5.4549 16.9825 5.4549 16.9825C5.4549 16.9825 5.44417 16.9911 5.42578 17.0042C5.36054 16.8369 5.32531 16.6165 5.36958 16.334C5.36958 16.334 5.74755 17.4586 6.1542 17.4628C6.1542 17.4628 5.87574 16.6828 6.13059 16.179C6.13059 16.179 6.09738 17.4176 6.50515 17.4685C6.50515 17.4685 6.49242 16.0397 6.90484 15.756C6.90484 15.756 6.47881 17.4549 6.67756 17.4713C6.67756 17.4713 7.13301 16.3619 7.31196 16.1663C7.31877 16.159 7.325 16.1528 7.33101 16.1481L7.31118 16.2148L6.93643 17.4755L9.60922 17.5187L9.27541 16.2466L9.25775 16.1792C9.26362 16.1842 9.26965 16.1905 9.27619 16.1981C9.44873 16.3994 9.86812 17.5229 9.86812 17.5229C10.0671 17.5129 9.69638 15.8011 9.69638 15.8011C10.0994 16.098 10.0405 17.5257 10.0405 17.5257C10.4497 17.4879 10.4566 16.2489 10.4566 16.2489C10.695 16.7607 10.3914 17.5313 10.3914 17.5313C10.798 17.5402 11.2122 16.4285 11.2122 16.4285C11.2473 16.7122 11.2049 16.9313 11.1343 17.0965C11.1164 17.0829 11.1059 17.0738 11.1059 17.0738C11.1059 17.0738 11.0973 17.1113 11.1021 17.1651C10.9677 17.4249 10.7708 17.5269 10.7708 17.5269C10.7708 17.5269 10.6342 17.5485 11.0941 17.5321C11.1685 17.5294 11.2351 17.4988 11.2942 17.449C11.3792 17.497 11.5008 17.5326 11.6738 17.5412C11.8215 17.5485 11.9303 17.4767 12.0101 17.3622C12.1361 17.7584 12.9011 17.4106 12.9011 17.4106C12.9011 17.4106 12.4371 17.4065 12.3529 17.0499C12.2687 16.6934 12.8355 16.2705 12.8355 16.2705C13.0527 17.1386 12.5878 16.9701 12.5878 16.9701C12.5878 16.9701 12.6277 17.0984 13.0164 17.1669C13.4052 17.2354 13.5655 16.5068 13.4477 16.247Z" fill="#FF88C4"/>
<path d="M10.0271 15.1333L10.0039 16.5663C10.0021 16.6789 9.9858 16.7881 9.95702 16.8916C9.91108 17.0565 9.8334 17.2079 9.73091 17.3389C9.49058 17.6462 9.11394 17.8416 8.69372 17.8348L8.01308 17.8238C7.53607 17.8161 7.12328 17.5499 6.90684 17.1609C6.86134 17.0791 6.82466 16.9924 6.79772 16.9015C6.76129 16.7786 6.74274 16.6485 6.74492 16.5136L6.76807 15.0807C6.77958 14.369 7.36597 13.801 8.07792 13.8125L8.75857 13.8235C9.47053 13.835 10.0386 14.4217 10.0271 15.1333Z" fill="#FEDDD6"/>
<path d="M11.0968 12.4835L11.773 11.5926L13.0444 11.7075C13.0444 11.7075 13.2748 11.7958 12.9448 11.9796C12.6149 12.1633 11.6727 12.6942 11.3847 12.5888L11.0968 12.4835Z" fill="#FEDDD6"/>
<mask id="mask1_699_44177" style="mask-type:luminance" maskUnits="userSpaceOnUse" x="11" y="11" width="2" height="2">
<path d="M11.5018 11.7959H12.8654V12.1836H11.5018V11.7959Z" fill="white"/>
</mask>
<g mask="url(#mask1_699_44177)">
<g opacity="0.360001">
<path d="M11.5018 11.8251C11.5018 11.8251 12.6739 11.7577 12.8654 11.8278C12.8654 11.8278 12.5336 12.1405 12.2699 12.1836L12.5491 11.9291L11.5172 11.9848L11.5018 11.8251Z" fill="#ED686B"/>
</g>
</g>
<path d="M5.65575 12.395L5.00869 11.4827L3.73425 11.5565C3.73425 11.5565 3.50115 11.6373 3.82495 11.8316C4.14875 12.0259 5.07336 12.587 5.36455 12.491L5.65575 12.395Z" fill="#FEDDD6"/>
<mask id="mask2_699_44177" style="mask-type:luminance" maskUnits="userSpaceOnUse" x="3" y="11" width="3" height="2">
<path d="M3.90942 11.6632H5.27233V12.0586H3.90942V11.6632Z" fill="white"/>
</mask>
<g mask="url(#mask2_699_44177)">
<g opacity="0.360001">
<path d="M5.27257 11.7251C5.27257 11.7251 4.1033 11.6199 3.90967 11.6837C3.90967 11.6837 4.23118 12.007 4.49335 12.0586L4.22243 11.7953L5.252 11.8843L5.27257 11.7251Z" fill="#ED686B"/>
</g>
</g>
<path d="M11.8317 10.5444C11.9717 10.784 12.0807 11.0561 12.1746 11.3324C12.59 12.576 12.6299 13.9977 12.4022 15.2951C12.3795 15.4175 12.3457 15.6024 12.3166 15.7215C12.1896 16.2838 12.0181 16.8228 11.8042 17.3249C11.8012 17.3319 11.7946 17.3341 11.7894 17.3299C11.7846 17.3261 11.7827 17.3182 11.7847 17.3115C11.9812 16.6379 12.1351 15.9519 12.2238 15.24C12.2323 15.1825 12.241 15.0868 12.2472 15.0277C12.2535 14.9658 12.2641 14.8762 12.2677 14.815C12.3397 13.9689 12.3012 13.0976 12.1506 12.2656C12.0488 11.7152 11.906 11.172 11.6993 10.6748C11.6438 10.554 11.7622 10.4335 11.8317 10.5444Z" fill="#ED3A69"/>
<path d="M11.5729 17.9239C11.5637 17.9382 11.2296 18.4353 10.3722 18.3362C9.63329 18.2509 9.07161 18.7293 8.34854 18.7073C7.6251 18.7059 7.07916 18.2096 6.33796 18.271C5.47778 18.3424 5.15993 17.8347 5.15112 17.8201C5.15816 17.8229 5.27921 17.8651 5.55276 17.7774C5.60696 17.7598 5.66736 17.7375 5.73432 17.7083C5.77854 17.6892 5.82572 17.6669 5.8755 17.6415C5.89503 17.6317 5.91488 17.6214 5.9351 17.6105C5.95136 17.6018 5.96768 17.5917 5.98334 17.5807C6.50865 17.2168 6.73705 15.6694 6.80837 15.132C6.8304 14.9665 6.86674 14.8352 6.90712 14.7328C6.91756 14.7062 6.92832 14.6813 6.939 14.6584C6.95339 14.6281 6.96768 14.6013 6.98197 14.5773C6.98696 14.5682 6.99226 14.5596 6.99787 14.5514C7.01777 14.5191 7.03723 14.493 7.05435 14.4725C7.09091 14.4285 7.11606 14.4101 7.11606 14.4101L7.39478 14.5221L7.3954 14.5223L7.73796 14.6595L7.73861 14.6598L7.84799 14.7036L7.8483 14.7039L8.19052 14.8411L8.19117 14.8414L8.40959 14.929L8.42518 14.9232L8.44142 14.9174L8.60965 14.8562L8.95644 14.7299L9.06784 14.6894L9.41336 14.5633L9.41466 14.5631L9.71924 14.4522C9.71924 14.4522 9.74571 14.4725 9.78268 14.5215C9.79882 14.5428 9.81711 14.5693 9.83594 14.6021C9.84098 14.6106 9.846 14.6193 9.8507 14.6286C9.86385 14.653 9.87728 14.6803 9.89035 14.711C9.90032 14.7342 9.90991 14.7591 9.9195 14.7861C9.95558 14.8892 9.98705 15.0199 10.0034 15.1837C10.0554 15.7032 10.2226 17.1651 10.6941 17.6117C10.7218 17.638 10.7508 17.661 10.7808 17.6796C10.7859 17.6831 10.791 17.6861 10.7961 17.6891C10.8541 17.7225 10.9081 17.7516 10.959 17.7767H10.9594C11.033 17.813 11.0994 17.8411 11.1588 17.8631C11.4392 17.9661 11.5655 17.9264 11.5729 17.9239Z" fill="#F772AE"/>
<path d="M11.575 17.8038C11.5657 17.8181 11.2317 18.3152 10.3742 18.2161C9.63537 18.1307 9.07369 18.6092 8.35061 18.5871C7.62717 18.5858 7.08124 18.0894 6.34003 18.1509C5.47986 18.2222 5.16201 17.7146 5.1532 17.7C5.16024 17.7027 5.28128 17.745 5.55484 17.6573C5.60903 17.6397 5.66944 17.6174 5.73639 17.5882C5.78061 17.569 5.82779 17.5468 5.87757 17.5214C5.89711 17.5116 5.91696 17.5013 5.93717 17.4904C5.95344 17.4817 5.96975 17.4716 5.98542 17.4606C6.51072 17.0967 6.73912 15.5493 6.81044 15.0119C6.83247 14.8464 6.86882 14.7151 6.90922 14.6126C6.91964 14.586 6.93039 14.5612 6.94107 14.5383C6.95547 14.508 6.96976 14.4812 6.98404 14.4572C6.98903 14.4481 6.99433 14.4395 6.99994 14.4312C7.01985 14.399 7.03931 14.3728 7.05643 14.3524C7.09298 14.3083 7.11813 14.29 7.11813 14.29L7.39685 14.4019L7.39748 14.4022L7.74004 14.5394L7.74069 14.5397L7.85006 14.5835L7.85038 14.5838L8.1926 14.7209L8.19325 14.7212L8.41167 14.8089L8.42726 14.8031L8.44349 14.7973L8.61172 14.7361L8.95851 14.6098L9.06992 14.5692L9.41544 14.4432L9.41674 14.4429L9.72134 14.3321C9.72134 14.3321 9.74779 14.3524 9.78476 14.4014C9.80089 14.4226 9.81918 14.4492 9.83802 14.482C9.84306 14.4904 9.84807 14.4992 9.85277 14.5085C9.86592 14.5329 9.87935 14.5601 9.89242 14.5909C9.9024 14.6141 9.91198 14.639 9.92157 14.6659C9.95766 14.7691 9.98912 14.8997 10.0055 15.0636C10.0575 15.5831 10.2247 17.045 10.6962 17.4916C10.7238 17.5179 10.7529 17.5408 10.7829 17.5595C10.788 17.563 10.7931 17.566 10.7982 17.5689C10.8561 17.6024 10.9102 17.6315 10.9611 17.6565H10.9615C11.0351 17.6929 11.1015 17.721 11.1608 17.743C11.4413 17.846 11.5675 17.8063 11.575 17.8038Z" fill="#F8F9FE"/>
<path d="M5.28885 10.3998C5.14832 10.6391 5.03871 10.911 4.94409 11.187C4.52579 12.4296 4.48261 13.8512 4.70727 15.1491C4.72969 15.2716 4.76305 15.4566 4.79189 15.5757C4.91761 16.1383 5.08786 16.6778 5.30057 17.1803C5.30353 17.1873 5.31016 17.1896 5.31538 17.1854C5.32011 17.1815 5.32203 17.1736 5.32011 17.167C5.12515 16.4929 4.97282 15.8066 4.88578 15.0945C4.87742 15.037 4.86897 14.9412 4.8629 14.8821C4.85671 14.8202 4.84637 14.7306 4.84286 14.6694C4.7729 13.8231 4.8134 12.9519 4.96599 12.1203C5.06905 11.5701 5.21317 11.0272 5.42094 10.5305C5.4768 10.4098 5.35861 10.2891 5.28885 10.3998Z" fill="#ED3A69"/>
<path d="M8.38544 14.875L6.7655 14.6374C6.77049 14.6087 6.77836 14.5801 6.78886 14.5509C6.79967 14.5207 6.81341 14.49 6.82939 14.4596C6.83438 14.45 6.8397 14.44 6.84534 14.4304C6.86262 14.4007 6.88148 14.3713 6.90229 14.3419C7.12929 14.0199 7.54812 13.7316 7.54812 13.7316L8.14226 14.5428L8.22342 14.6538L8.24963 14.6894L8.3308 14.8005L8.38544 14.875Z" fill="#E2E8EF"/>
<path d="M8.33039 14.7998L6.78845 14.5502C6.79926 14.52 6.813 14.4893 6.82898 14.4589L8.24923 14.6887L8.33039 14.7998Z" fill="#21013E"/>
<path d="M8.22327 14.6543L6.84521 14.4309C6.86247 14.4012 6.88135 14.3718 6.90216 14.3424L8.1421 14.5432L8.22327 14.6543Z" fill="#21013E"/>
<path d="M8.37549 14.875L10.0023 14.6899C9.9982 14.661 9.99124 14.6322 9.98173 14.6027C9.97188 14.5722 9.95915 14.541 9.94416 14.5101C9.93949 14.5003 9.93447 14.4902 9.92914 14.4805C9.91283 14.4502 9.89493 14.4202 9.87508 14.3901C9.65863 14.0609 9.2493 13.7593 9.2493 13.7593L8.6293 14.5508L8.54457 14.6592L8.51721 14.6939L8.43252 14.8023L8.37549 14.875Z" fill="#E2E8EF"/>
<path d="M8.43274 14.8018L9.98195 14.6021C9.97211 14.5716 9.95938 14.5404 9.94438 14.5095L8.51746 14.6934L8.43274 14.8018Z" fill="#21013E"/>
<path d="M8.54456 14.6592L9.9291 14.4804C9.91281 14.4502 9.89491 14.4202 9.87506 14.3901L8.62928 14.5508L8.54456 14.6592Z" fill="#21013E"/>
<path d="M11.8206 12.1749C11.8257 12.5872 11.7484 13.4287 10.8375 13.8225C10.8023 13.8378 10.7669 13.8524 10.7315 13.8668C9.61431 14.318 8.37029 14.335 8.37029 14.335C8.37029 14.335 7.12173 14.2777 6.01793 13.7872C6.01793 13.7874 6.01769 13.7872 6.01769 13.7872C5.98527 13.7729 5.95305 13.7583 5.92089 13.7431C5.00135 13.3098 4.97132 12.435 4.99296 12.0353C4.99763 11.9452 5.00514 11.8793 5.00566 11.8478C5.00842 11.6769 4.8385 10.4774 4.8385 10.4774C4.88823 7.4009 8.48144 7.45897 8.48144 7.45897C8.48144 7.45897 12.0746 7.51706 12.0249 10.5935C12.0249 10.5935 11.8163 11.787 11.8136 11.9579C11.813 11.9926 11.8196 12.0697 11.8206 12.1749Z" fill="#FEDDD6"/>
<path d="M10.2616 15.1687C12.1009 14.8333 10.9151 9.48141 10.8478 9.185C11.5697 12.639 10.492 12.4838 10.492 12.4838C11.1631 11.8564 10.5333 9.40383 10.5199 9.35224C10.6879 10.3448 10.5214 10.6644 10.5214 10.6644C10.4141 10.1789 9.72981 10.1011 9.72981 10.1011L9.7076 9.16658C9.72981 10.1011 9.34363 10.1347 9.34363 10.1347C9.42654 9.99389 9.21729 9.07317 9.21729 9.07317L9.20009 10.1363L7.62918 10.1109L7.64638 9.04779C7.64638 9.04779 7.40723 9.96123 7.48553 10.1046C7.48553 10.1046 7.10065 10.0586 7.15305 9.12527L7.10065 10.0586C7.10065 10.0586 6.41418 10.1143 6.29122 10.596C6.29122 10.596 6.1352 10.2713 6.33523 9.28461C6.32011 9.33574 5.61138 11.7666 6.26181 12.4155C6.26181 12.4155 5.17968 12.5357 6.01283 9.10685C5.93595 9.40092 4.5778 14.7117 6.40538 15.1064C6.40538 15.1064 4.06206 15.8775 4.31457 10.9882C4.31457 10.9882 4.4346 7.16745 7.84916 6.94854H7.84963C8.04425 6.93601 8.24953 6.93518 8.46587 6.94745C8.68273 6.9422 8.88762 6.94965 9.08174 6.96844C9.08198 6.96823 9.08221 6.96823 9.08245 6.96846C12.4881 7.29764 12.4846 11.1203 12.4846 11.1203C12.579 16.0152 10.2616 15.1687 10.2616 15.1687Z" fill="#FF88C4"/>
<path d="M2.3035 7.28435L4.01792 9.56568C4.11722 9.69834 4.12585 9.87438 4.0465 9.98782C4.03432 10.0051 4.02042 10.0209 4.00454 10.0349L3.95102 10.0819L3.49002 10.4857L3.44445 10.5254C3.4266 10.5411 3.40789 10.5542 3.38864 10.5646C3.27947 10.6254 3.16172 10.5989 3.10612 10.4932L2.13431 8.63265C2.0691 8.50839 2.0241 8.26968 2.03394 8.09942L2.07861 7.31646C2.08822 7.14598 2.18866 7.13177 2.3035 7.28435Z" fill="#F8F9FE"/>
<path d="M1.71677 9.15247L3.4969 9.75255C3.6002 9.7876 3.67045 9.87996 3.66959 9.97108C3.66944 9.98503 3.66778 9.99878 3.66437 10.0123L3.65281 10.0577L3.55289 10.4486L3.54294 10.4871C3.53909 10.5023 3.53384 10.5164 3.52722 10.5291C3.49061 10.6028 3.41683 10.6322 3.3473 10.5956L2.12695 9.94741C2.0453 9.90423 1.93197 9.7914 1.87393 9.69532L1.60664 9.25364C1.54839 9.15751 1.59762 9.11241 1.71677 9.15247Z" fill="#E2E8EF"/>
<path d="M2.03543 10.5727L3.14469 10.0228C3.20915 9.99098 3.28493 10.0013 3.327 10.0441C3.33344 10.0507 3.33905 10.0579 3.34375 10.0658L3.35955 10.0923L3.49512 10.321L3.50845 10.3436C3.51372 10.3525 3.51785 10.3615 3.52071 10.3706C3.53799 10.422 3.51733 10.4701 3.46784 10.4854L2.59706 10.752C2.53889 10.77 2.43349 10.7702 2.36165 10.7525L2.03125 10.6712C1.95931 10.6535 1.96123 10.6096 2.03543 10.5727Z" fill="#E2E8EF"/>
<path d="M2.96533 10.1378C2.85714 10.7838 3.19042 11.3779 3.7097 11.4649C4.22898 11.5519 4.73764 11.0987 4.84582 10.4528C4.95401 9.80685 4.62075 9.21269 4.10144 9.12573C3.58216 9.03878 3.07351 9.49191 2.96533 10.1378Z" fill="black"/>
<path d="M2.99818 10.1583C2.89836 10.7543 3.20584 11.3025 3.68498 11.3827C4.16409 11.4629 4.63341 11.0449 4.7332 10.4489C4.83302 9.85291 4.52554 9.30474 4.04643 9.22448C3.56731 9.14426 3.09799 9.56234 2.99818 10.1583Z" fill="#E2E8EF"/>
</g>
<path d="M2.93233 10.1266C2.84701 10.6359 3.11258 11.1049 3.5255 11.174C3.93841 11.2432 4.34231 10.8864 4.42761 10.377C4.5129 9.86763 4.24732 9.39867 3.83441 9.32954C3.79999 9.32377 3.76556 9.32096 3.73145 9.32094C3.35631 9.32091 3.0105 9.65968 2.93233 10.1266Z" fill="url(#paint0_linear_699_44177)"/>
<mask id="mask3_699_44177" style="mask-type:luminance" maskUnits="userSpaceOnUse" x="1" y="2" width="15" height="16">
<path d="M1.16797 9.98563C1.16797 14.0429 4.45707 17.332 8.51437 17.332C12.5717 17.332 15.8608 14.0429 15.8608 9.98563C15.8608 5.92832 12.5717 2.63922 8.51437 2.63922C4.45707 2.63922 1.16797 5.92832 1.16797 9.98563Z" fill="white"/>
</mask>
<g mask="url(#mask3_699_44177)">
<path d="M14.7868 7.48723L12.9995 9.71195C12.896 9.84134 12.8816 10.017 12.9573 10.1329C12.9689 10.1507 12.9823 10.1669 12.9977 10.1814L13.0497 10.2301L13.4974 10.6485L13.5417 10.6897C13.559 10.706 13.5773 10.7197 13.5962 10.7307C13.7033 10.7949 13.8219 10.7723 13.8809 10.6685L14.9123 8.84029C14.9815 8.71821 15.0342 8.48108 15.0298 8.31059L15.0105 7.5266C15.0064 7.3559 14.9065 7.33844 14.7868 7.48723Z" fill="#F8F9FE"/>
<path d="M15.3133 9.37287L13.5147 9.91512C13.4103 9.94679 13.3371 10.0368 13.335 10.1279C13.3347 10.1419 13.3359 10.1557 13.3389 10.1693L13.349 10.2151L13.4362 10.6089L13.4449 10.6478C13.4483 10.6631 13.4531 10.6773 13.4592 10.6903C13.4935 10.7651 13.5663 10.7969 13.637 10.7625L14.8776 10.1541C14.9606 10.1136 15.0775 10.0045 15.1387 9.91033L15.4201 9.47755C15.4814 9.38334 15.4337 9.33668 15.3133 9.37287Z" fill="#E2E8EF"/>
<path d="M14.9484 10.7813L13.8575 10.1958C13.7941 10.1619 13.718 10.1698 13.6746 10.2113C13.668 10.2176 13.6621 10.2246 13.6572 10.2323L13.6405 10.2584L13.4976 10.4826L13.4836 10.5048C13.478 10.5134 13.4736 10.5223 13.4704 10.5313C13.4515 10.5821 13.4706 10.6308 13.5196 10.6477L14.3813 10.9424C14.4389 10.9622 14.5442 10.9658 14.6166 10.9504L14.9494 10.8799C15.0219 10.8646 15.0214 10.8206 14.9484 10.7813Z" fill="#E2E8EF"/>
<path d="M14.0328 10.3167C14.1201 10.9658 13.7678 11.5489 13.246 11.619C12.7241 11.6892 12.2304 11.2198 12.1431 10.5707C12.0559 9.92162 12.4082 9.33859 12.93 9.26844C13.4519 9.19829 13.9456 9.66764 14.0328 10.3167Z" fill="black"/>
<path d="M13.9995 10.336C14.08 10.9349 13.755 11.4728 13.2735 11.5375C12.7921 11.6023 12.3365 11.1692 12.256 10.5703C12.1755 9.97144 12.5006 9.43348 12.982 9.36876C13.4635 9.30404 13.919 9.73709 13.9995 10.336Z" fill="#E2E8EF"/>
</g>
<path d="M13.1906 9.4817C12.7757 9.53746 12.495 9.99761 12.5638 10.5095C12.6327 11.0213 13.0248 11.391 13.4397 11.3353C13.8546 11.2795 14.1353 10.8193 14.0664 10.3075C14.0023 9.82995 13.6566 9.47612 13.2736 9.47615C13.2461 9.47615 13.2184 9.47796 13.1906 9.4817Z" fill="url(#paint1_linear_699_44177)"/>
<mask id="mask4_699_44177" style="mask-type:luminance" maskUnits="userSpaceOnUse" x="1" y="2" width="15" height="16">
<path d="M1.16797 9.98563C1.16797 14.0429 4.45707 17.332 8.51437 17.332C12.5717 17.332 15.8608 14.0429 15.8608 9.98563C15.8608 5.92832 12.5717 2.63922 8.51437 2.63922C4.45707 2.63922 1.16797 5.92832 1.16797 9.98563Z" fill="white"/>
</mask>
<g mask="url(#mask4_699_44177)">
<path d="M8.90739 13.1106C8.84566 13.2015 8.78583 13.2744 8.72768 13.3317C8.42934 13.6279 8.18307 13.5174 8.02415 13.3627C7.89954 13.2414 7.82861 13.093 7.82861 13.093L8.90739 13.1106Z" fill="#C13244"/>
<path d="M8.72746 13.3317C8.4291 13.6279 8.18282 13.5174 8.02393 13.3627C8.0795 13.2598 8.1783 13.1813 8.30158 13.1558C8.47113 13.1206 8.63775 13.1955 8.72746 13.3317Z" fill="#FD8898"/>
<path d="M9.04552 10.3814C9.29865 10.3398 9.55716 10.3568 9.80369 10.4239C9.88618 10.4454 9.96565 10.4786 10.0423 10.5155C10.0682 10.5279 10.0791 10.559 10.0666 10.5848C10.0551 10.6089 10.0279 10.6194 10.0036 10.6119C9.96425 10.6028 9.92715 10.5888 9.88784 10.5808C9.69483 10.531 9.49602 10.5025 9.29693 10.4909C9.21639 10.4865 9.13369 10.4839 9.05502 10.4847C8.99205 10.4848 8.98355 10.3926 9.04552 10.3814Z" fill="black"/>
<path d="M7.56458 10.4601C7.30688 10.4501 7.04359 10.4665 6.79004 10.5167L6.73174 10.5294C6.69217 10.5361 6.65463 10.5489 6.61503 10.5567C6.58583 10.5647 6.5552 10.5467 6.54946 10.5166C6.54465 10.4924 6.55767 10.4687 6.57944 10.459C6.73452 10.3878 6.90282 10.3485 7.07243 10.3336C7.24297 10.3185 7.41098 10.3225 7.58007 10.3573C7.60818 10.3632 7.62618 10.3908 7.62029 10.4189C7.61483 10.4451 7.59043 10.4623 7.56458 10.4601Z" fill="black"/>
<path d="M10.5064 12.0274C10.4994 12.4636 10.1958 12.8125 9.82843 12.8066C9.46107 12.8006 9.16896 12.4422 9.17603 12.0059C9.18307 11.5696 9.4866 11.2208 9.85397 11.2267C10.2214 11.2327 10.5134 11.5912 10.5064 12.0274Z" fill="white"/>
<path d="M10.4397 12.1399C10.4337 12.5142 10.1759 12.8136 9.864 12.8085C9.55208 12.8035 9.30411 12.496 9.31017 12.1216C9.31622 11.7473 9.57398 11.448 9.8859 11.453C10.1978 11.4581 10.4458 11.7656 10.4397 12.1399Z" fill="#21013E"/>
<path d="M10.3208 11.9743C10.2659 11.953 10.2057 11.9462 10.1627 11.9018C10.1195 11.8572 10.1147 11.7965 10.0956 11.7405C10.0752 11.7957 10.0684 11.8562 10.024 11.8991C9.97933 11.9423 9.91897 11.9484 9.86182 11.9659C9.91658 11.9877 9.97785 11.9939 10.021 12.0384C10.0641 12.0828 10.0697 12.1432 10.0879 12.1992C10.1095 12.1441 10.1158 12.0832 10.1608 12.0406C10.2053 11.9984 10.2647 11.9924 10.3208 11.9743Z" fill="white"/>
<path d="M9.20717 11.6637C9.24794 11.3133 9.55342 11.1058 9.89226 11.1074C10.2152 11.1168 10.5769 11.3259 10.5859 11.6806C10.5859 11.6806 10.497 11.6261 10.497 11.6261C10.5801 11.6103 10.696 11.5918 10.7492 11.521C10.7567 11.5084 10.773 11.5043 10.7856 11.5119C10.8229 11.5388 10.7667 11.6012 10.749 11.6214C10.6874 11.6834 10.6152 11.7243 10.5366 11.7612C10.5068 11.7749 10.4715 11.7618 10.4578 11.7319C10.4125 11.6064 10.3335 11.5074 10.2254 11.448C10.1299 11.3937 10.0151 11.3617 9.90458 11.3487C9.85524 11.3452 9.80175 11.3474 9.75249 11.3534C9.73911 11.3539 9.72199 11.3577 9.709 11.3607C9.54274 11.3894 9.40016 11.5003 9.3097 11.6419C9.29889 11.6574 9.29003 11.6738 9.28062 11.6884C9.2596 11.7236 9.20255 11.7041 9.20717 11.6637Z" fill="black"/>
<path d="M7.58587 11.9795C7.57883 12.4158 7.2753 12.7646 6.9079 12.7587C6.54053 12.7528 6.24843 12.3943 6.2555 11.958C6.26254 11.5218 6.56607 11.1729 6.93344 11.1789C7.30084 11.1848 7.59291 11.5433 7.58587 11.9795Z" fill="white"/>
<path d="M7.51994 12.093C7.51388 12.4673 7.25613 12.7667 6.9442 12.7617C6.63228 12.7566 6.38431 12.4491 6.39037 12.0748C6.39642 11.7005 6.65418 11.4011 6.9661 11.4062C7.27803 11.4112 7.52599 11.7187 7.51994 12.093Z" fill="#21013E"/>
<path d="M7.40041 11.9274C7.34554 11.9062 7.28532 11.8993 7.24229 11.8549C7.19906 11.8103 7.1943 11.7496 7.17523 11.6936C7.15484 11.7488 7.14795 11.8094 7.10358 11.8523C7.05892 11.8954 6.99856 11.9016 6.94141 11.919C6.99617 11.9409 7.05744 11.947 7.10062 11.9915C7.14367 12.0359 7.14928 12.0963 7.16752 12.1523C7.18906 12.0972 7.1954 12.0364 7.24042 11.9937C7.28487 11.9515 7.34427 11.9455 7.40041 11.9274Z" fill="white"/>
<path d="M7.51095 11.6539C7.3831 11.4134 7.17346 11.2898 6.90178 11.3001C6.67249 11.3201 6.44246 11.4104 6.34742 11.6404L6.33765 11.6627C6.32448 11.6927 6.28943 11.7064 6.25937 11.6932C6.20596 11.6673 6.15989 11.6388 6.11305 11.6036C6.08029 11.5834 5.95301 11.459 6.02328 11.432C6.03617 11.4292 6.04828 11.4363 6.0535 11.4476C6.10803 11.5187 6.21695 11.5394 6.30068 11.5583L6.21004 11.6099C6.23402 11.2144 6.68956 11.009 7.04251 11.0719C7.24309 11.1045 7.43524 11.2285 7.52529 11.4126C7.56018 11.4842 7.58414 11.5564 7.58863 11.6375C7.58985 11.6595 7.57299 11.6783 7.55101 11.6795C7.53264 11.6806 7.5183 11.6692 7.51095 11.6539Z" fill="black"/>
<path d="M6.94722 12.5976C6.89014 12.5967 6.84465 12.5814 6.81095 12.5638C6.65863 12.4844 6.62379 12.3009 6.62033 12.2803C6.60934 12.215 6.65341 12.1531 6.71872 12.1422C6.78373 12.1312 6.84535 12.1749 6.85668 12.2398C6.86196 12.268 6.88484 12.3323 6.92223 12.3514C6.95416 12.3678 7.00365 12.3508 7.03953 12.3338C7.09932 12.3054 7.17084 12.3309 7.19926 12.3907C7.22764 12.4505 7.20217 12.5221 7.14234 12.5504C7.06687 12.5863 7.00176 12.5985 6.94722 12.5976Z" fill="#F772AE"/>
<path d="M9.86751 12.6445C9.8104 12.6436 9.76493 12.6283 9.73121 12.6107C9.57888 12.5313 9.54407 12.3478 9.54061 12.3271C9.52965 12.2618 9.57369 12.2 9.63898 12.189C9.70393 12.178 9.76564 12.2218 9.77696 12.2866C9.78224 12.3149 9.80513 12.3792 9.84251 12.3983C9.87442 12.4146 9.92391 12.3977 9.95982 12.3807C10.0197 12.3522 10.0911 12.3777 10.1195 12.4376C10.1479 12.4974 10.1225 12.5689 10.0626 12.5973C9.98715 12.6331 9.92204 12.6454 9.86751 12.6445Z" fill="#F772AE"/>
<path d="M7.16344 13.1202C7.16071 13.2895 6.93813 13.4232 6.66632 13.4188C6.39448 13.4144 6.17635 13.2736 6.1791 13.1043C6.18183 12.9349 6.40441 12.8012 6.67622 12.8056C6.94803 12.81 7.16617 12.9508 7.16344 13.1202Z" fill="#FFB6C4"/>
<path d="M10.5524 13.1759C10.5496 13.3452 10.3271 13.4789 10.0552 13.4745C9.7834 13.4701 9.56526 13.3293 9.56802 13.16C9.57075 12.9906 9.79333 12.8569 10.0651 12.8613C10.3369 12.8657 10.5551 13.0065 10.5524 13.1759Z" fill="#FFB6C4"/>
<path d="M8.5326 15.8788L8.43943 15.6063C8.42062 15.5512 8.38843 15.5507 8.36786 15.6051L8.26596 15.8745C8.21296 15.8671 8.18742 15.8257 8.20893 15.7768L8.36552 15.4207C8.38898 15.3673 8.42598 15.3679 8.4477 15.422L8.59272 15.783C8.61265 15.8326 8.58581 15.8731 8.5326 15.8788ZM8.79709 15.583C8.76014 15.402 8.60158 15.2645 8.40922 15.2613C8.1869 15.2577 8.00376 15.4351 8.00018 15.6574C7.99659 15.8796 8.17391 16.0628 8.39623 16.0664C8.44097 16.0671 8.4841 16.0604 8.52455 16.0475C8.68495 15.9966 8.80236 15.8479 8.80524 15.6704C8.80571 15.6404 8.80283 15.6112 8.79709 15.583Z" fill="#E81D3F"/>
<path d="M6.53795 7.28943C6.44619 7.41991 6.35286 7.57314 6.27302 7.71227C5.56528 8.96569 5.20139 10.4047 5.19825 11.8444C5.19921 11.8825 5.20111 12.1288 5.20173 12.1644C5.20648 12.257 5.21394 12.3917 5.21823 12.4845C5.27728 13.3904 5.45899 14.2748 5.71454 15.1533C5.7175 15.1634 5.71168 15.174 5.70155 15.177C5.6924 15.1796 5.68284 15.1751 5.67892 15.1668C5.25169 14.2561 4.96403 13.2592 4.85824 12.2529C4.74517 11.1429 4.84917 10.0041 5.22981 8.94906C5.47411 8.28629 5.81218 7.64417 6.29428 7.12266L6.32049 7.096C6.45211 6.9695 6.64845 7.14196 6.53795 7.28943Z" fill="#ED3A69"/>
<path d="M10.0865 7.12197C10.3563 7.36374 10.5821 7.65346 10.7842 7.95263C11.6807 9.30057 12.0011 10.9705 11.8682 12.5676C11.7924 13.4443 11.5867 14.3174 11.2689 15.1314C11.2651 15.1412 11.254 15.1461 11.2442 15.1422C11.2353 15.1388 11.2305 15.1294 11.2325 15.1203C11.4196 14.2686 11.538 13.4168 11.5479 12.5526C11.5509 12.4825 11.547 12.3673 11.546 12.2959C11.5447 12.2213 11.545 12.1129 11.5396 12.0398C11.4986 11.024 11.277 10.0103 10.8862 9.07461C10.6244 8.45621 10.2991 7.858 9.88253 7.32958C9.76349 7.19217 9.94442 7.00331 10.0865 7.12197Z" fill="#ED3A69"/>
<path d="M5.29053 17.3481C5.3356 17.6467 5.60474 17.8641 5.91053 17.84C6.23044 17.8148 6.46936 17.5351 6.44418 17.2152C6.34413 15.9437 6.99513 15.6351 7.02293 15.6226C7.01373 15.6267 7.00862 15.6284 7.00862 15.6284L6.59284 14.5433C6.53239 14.5664 5.11487 15.1353 5.28577 17.3064C5.28686 17.3204 5.28845 17.3343 5.29053 17.3481Z" fill="#FEDDD6"/>
<path d="M5.95107 15.0708L6.73512 15.8537C6.79555 15.914 6.89035 15.9224 6.96045 15.8737C7.16788 15.7293 7.52107 15.3844 7.18053 14.8615C6.80786 14.2893 6.23031 14.5849 5.96125 14.8119C5.88253 14.8783 5.87817 14.9981 5.95107 15.0708Z" fill="#F8F9FE"/>
<path d="M6.7375 17.9612L6.7936 17.9174C6.85748 17.8676 6.86886 17.7754 6.81903 17.7115L6.47354 17.2685C6.42371 17.2046 6.3315 17.1932 6.26761 17.2431L6.21152 17.2868C6.14763 17.3366 6.13623 17.4288 6.18606 17.4927L6.53158 17.9357C6.58141 17.9996 6.67362 18.011 6.7375 17.9612Z" fill="#F8F9FE"/>
<path d="M5.34325 17.4903C5.32454 17.8254 5.58097 18.1121 5.91602 18.1309C6.25104 18.1496 6.53785 17.8931 6.55655 17.5581C6.57529 17.2231 6.31883 16.9363 5.98381 16.9175C5.64876 16.8988 5.36195 17.1553 5.34325 17.4903Z" fill="#F8F9FE"/>
<path d="M5.89737 17.4039L6.40267 17.298C6.44998 17.2881 6.48428 17.247 6.4855 17.1987L6.4947 16.8373C6.49659 16.7637 6.42385 16.7115 6.35476 16.7367C6.11995 16.8225 5.64824 16.9804 5.32514 16.9946C5.25603 16.9976 5.20812 17.0644 5.22909 17.1303L5.31639 17.4049C5.33198 17.4539 5.38095 17.4842 5.43174 17.4763L5.89737 17.4039Z" fill="#F8F9FE"/>
<path d="M11.5674 17.2624C11.5522 17.5641 11.3059 17.807 10.9992 17.8133C10.6784 17.82 10.4129 17.5653 10.4063 17.2445C10.3799 15.9694 9.7015 15.7268 9.67261 15.7171C9.68214 15.7203 9.68739 15.7214 9.68739 15.7214L9.99363 14.6005C10.0561 14.6175 11.523 15.0432 11.568 17.2204C11.5683 17.2346 11.5681 17.2486 11.5674 17.2624Z" fill="#FEDDD6"/>
<path d="M10.6848 15.0631L9.98215 15.9198C9.928 15.9859 9.8345 16.0036 9.75993 15.962C9.5392 15.8389 9.15359 15.5307 9.44065 14.9767C9.75479 14.3704 10.3588 14.6072 10.649 14.8065C10.7339 14.8648 10.7501 14.9835 10.6848 15.0631Z" fill="#F8F9FE"/>
<path d="M10.189 18.0154L10.1288 17.9775C10.0603 17.9342 10.0398 17.8436 10.0831 17.7751L10.383 17.3C10.4263 17.2315 10.5169 17.211 10.5854 17.2543L10.6456 17.2923C10.7141 17.3355 10.7345 17.4261 10.6913 17.4946L10.3914 17.9697C10.3481 18.0382 10.2575 18.0587 10.189 18.0154Z" fill="#F8F9FE"/>
<path d="M11.5292 17.4079C11.581 17.7394 11.3542 18.0502 11.0227 18.102C10.6911 18.1538 10.3804 17.9271 10.3285 17.5955C10.2767 17.264 10.5035 16.9532 10.835 16.9014C11.1666 16.8496 11.4773 17.0763 11.5292 17.4079Z" fill="#F8F9FE"/>
<path d="M10.9694 17.3773L10.4561 17.3219C10.408 17.3168 10.3698 17.2793 10.3638 17.2313L10.3188 16.8726C10.3097 16.7996 10.3769 16.7404 10.4481 16.7587C10.6903 16.8207 11.1753 16.9312 11.4982 16.9132C11.5673 16.9094 11.6216 16.9711 11.6072 17.0388L11.5476 17.3207C11.5369 17.371 11.4912 17.406 11.4399 17.4032L10.9694 17.3773Z" fill="#F8F9FE"/>
</g>
<rect x="2" y="1" width="16" height="4.66534" rx="2.33267" fill="#FF0000"/>
<path d="M15.5452 1.61328L14.6366 5.05111H13.7784L13.2078 2.84553C13.1774 2.73045 13.1591 2.6018 13.1527 2.45955H13.1431C13.1287 2.61618 13.1079 2.74484 13.0807 2.84553L12.4958 5.05111H11.6016L10.6978 1.61328H11.544L12.0283 3.90277C12.0491 4.00026 12.0643 4.13132 12.0738 4.29594H12.0882C12.0946 4.17287 12.1178 4.03862 12.1578 3.89318L12.7811 1.61328H13.6106L14.1739 3.92195C14.1947 4.00665 14.2131 4.12972 14.2291 4.29114H14.2387C14.2451 4.16488 14.2618 4.03702 14.289 3.90756L14.7637 1.61328H15.5452Z" fill="white"/>
<path d="M10.3957 5.05111H8.33398V1.61328H10.3166V2.24379H9.10833V3.00855H10.2327V3.63666H9.10833V4.423H10.3957V5.05111Z" fill="white"/>
<path d="M7.54756 5.05111H6.76602L5.34917 2.89108C5.26607 2.76482 5.20853 2.66972 5.17656 2.60579H5.16697C5.17976 2.72726 5.18615 2.91265 5.18615 3.16198V5.05111H4.45496V1.61328H5.28924L6.65334 3.70618C6.71567 3.80048 6.77321 3.89398 6.82595 3.98668H6.83554C6.82276 3.90676 6.81636 3.74934 6.81636 3.51439V1.61328H7.54756V5.05111Z" fill="white"/>
</g>
<defs>
<linearGradient id="paint0_linear_699_44177" x1="2.91775" y1="10.4808" x2="4.44216" y2="10.0228" gradientUnits="userSpaceOnUse">
<stop stop-color="#4B4897"/>
<stop offset="1" stop-color="#150647"/>
</linearGradient>
<linearGradient id="paint1_linear_699_44177" x1="14.0696" y1="10.662" x2="12.5607" y2="10.155" gradientUnits="userSpaceOnUse">
<stop stop-color="#4B4897"/>
<stop offset="1" stop-color="#150647"/>
</linearGradient>
<clipPath id="clip0_699_44177">
<rect width="18" height="18" fill="white"/>
</clipPath>
</defs>
</svg>
