<svg width="55" height="55" viewBox="0 0 55 55" fill="none" xmlns="http://www.w3.org/2000/svg">
<path d="M20.0002 5.08985H35.1202C35.6772 5.08935 36.2289 5.19861 36.7436 5.41138C37.2584 5.62414 37.7261 5.93624 38.1202 6.32985L48.8502 17.0598C49.6442 17.8564 50.0901 18.9352 50.0902 20.0598V35.2198C50.0907 35.7768 49.9815 36.3285 49.7687 36.8432C49.5559 37.358 49.2438 37.8257 48.8502 38.2198L38.1202 48.9398C37.3253 49.7375 36.2463 50.1871 35.1202 50.1898H20.0002C18.8741 50.1871 17.7951 49.7375 17.0002 48.9398L6.23024 38.2098C5.83663 37.8157 5.52453 37.348 5.31177 36.8332C5.099 36.3185 4.98975 35.7668 4.99024 35.2098V20.0598C4.99034 18.9352 5.43624 17.8564 6.23024 17.0598L17.0002 6.32985C17.3943 5.93624 17.8621 5.62414 18.3769 5.41138C18.8916 5.19861 19.4432 5.08935 20.0002 5.08985V5.08985Z" fill="#FFCE43"/>
<path d="M8.24977 40.2298L6.24977 38.2298C5.85616 37.8357 5.54406 37.368 5.3313 36.8532C5.11853 36.3385 5.00928 35.7868 5.00977 35.2298V20.0598C5.00987 18.9352 5.45577 17.8564 6.24977 17.0598L16.9998 6.32985C17.3939 5.93624 17.8616 5.62414 18.3764 5.41138C18.8912 5.19861 19.4428 5.08935 19.9998 5.08985H35.1198C35.6768 5.08935 36.2284 5.19861 36.7431 5.41138C37.2579 5.62414 37.7257 5.93624 38.1198 6.32985L40.1898 8.39984" stroke="black" stroke-width="2" stroke-linecap="round" stroke-linejoin="round"/>
<path d="M12.1198 44.0998L11.2798 43.2598" stroke="black" stroke-width="2" stroke-linecap="round" stroke-linejoin="round"/>
<path d="M46.0001 14.2202L48.8401 17.0602C49.6341 17.8568 50.08 18.9355 50.0801 20.0602V35.2202C50.0806 35.7772 49.9714 36.3288 49.7586 36.8436C49.5458 37.3583 49.2337 37.8261 48.8401 38.2202L38.1201 48.9402C37.3252 49.7379 36.2462 50.1875 35.1201 50.1902H20.0001C18.874 50.1875 17.795 49.7379 17.0001 48.9402L14.8701 46.8102" stroke="black" stroke-width="2" stroke-linecap="round" stroke-linejoin="round"/>
<path d="M42.73 10.9399L43.57 11.7799" stroke="black" stroke-width="2" stroke-linecap="round" stroke-linejoin="round"/>
<path d="M25.89 27.4001L26.42 33.1501H28.71L29.25 27.4001C29.4 25.7201 29.55 24.2101 29.68 22.8901C29.97 19.8901 30.17 17.9601 30.17 16.9701C30.17 15.1501 29.24 14.1401 27.57 14.1401C25.9 14.1401 25 15.1501 25 17.0001C25 18.0001 25.19 20.0001 25.48 22.9301C25.58 24.2201 25.73 25.7201 25.89 27.4001Z" fill="white"/>
<path d="M27.5698 35.9302C26.8001 35.9531 26.0687 36.2712 25.527 36.8184C24.9854 37.3657 24.6748 38.1003 24.6598 38.8702C24.6366 39.266 24.6945 39.6624 24.8299 40.035C24.9654 40.4077 25.1756 40.7487 25.4477 41.0372C25.7197 41.3256 26.0478 41.5555 26.4119 41.7126C26.776 41.8697 27.1683 41.9507 27.5648 41.9507C27.9613 41.9507 28.3536 41.8697 28.7177 41.7126C29.0817 41.5555 29.4099 41.3256 29.6819 41.0372C29.9539 40.7487 30.1641 40.4077 30.2996 40.035C30.4351 39.6624 30.493 39.266 30.4698 38.8702C30.4548 38.102 30.1457 37.3688 29.6062 36.8218C29.0666 36.2748 28.3377 35.9556 27.5698 35.9302V35.9302Z" fill="white"/>
</svg>
