<svg width="55" height="55" viewBox="0 0 55 55" fill="none" xmlns="http://www.w3.org/2000/svg">
<path d="M24.63 9.43988L4.52 44.2699C4.23493 44.7796 4.08765 45.3548 4.09265 45.9388C4.09766 46.5227 4.25479 47.0953 4.54855 47.6001C4.84231 48.1048 5.26255 48.5243 5.76784 48.8171C6.27313 49.1099 6.84601 49.266 7.43 49.2699H47.65C48.2331 49.2642 48.8048 49.1069 49.3087 48.8134C49.8126 48.5199 50.2314 48.1003 50.524 47.5958C50.8166 47.0914 50.9728 46.5194 50.9774 45.9363C50.982 45.3531 50.8347 44.7789 50.55 44.2699L30.45 9.43988C30.1531 8.93155 29.7282 8.50986 29.2177 8.2168C28.7071 7.92374 28.1287 7.76953 27.54 7.76953C26.9513 7.76953 26.3729 7.92374 25.8623 8.2168C25.3518 8.50986 24.9269 8.93155 24.63 9.43988V9.43988Z" fill="#FF3131"/>
<path d="M34.31 49.3099H47.65C48.2331 49.3042 48.8048 49.1469 49.3087 48.8534C49.8126 48.5599 50.2314 48.1403 50.524 47.6358C50.8166 47.1314 50.9728 46.5594 50.9774 45.9763C50.982 45.3931 50.8347 44.8189 50.55 44.3099L30.45 9.43988C30.1531 8.93155 29.7282 8.50986 29.2177 8.2168C28.7071 7.92374 28.1287 7.76953 27.54 7.76953C26.9513 7.76953 26.3729 7.92374 25.8623 8.2168C25.3518 8.50986 24.9269 8.93155 24.63 9.43988L4.52 44.2699C4.23493 44.7796 4.08765 45.3548 4.09265 45.9388C4.09766 46.5227 4.25479 47.0953 4.54855 47.6001C4.84231 48.1048 5.26255 48.5243 5.76784 48.8171C6.27313 49.1099 6.84601 49.266 7.43 49.2699H22.6" stroke="#0A2A55" stroke-width="2" stroke-linecap="round" stroke-linejoin="round"/>
<path d="M28.03 49.3101H28.51" stroke="#0A2A55" stroke-width="2" stroke-linecap="round" stroke-linejoin="round"/>
<path d="M21.0601 41.9999C20.7049 41.9988 20.3579 41.8927 20.0629 41.6948C19.768 41.497 19.5381 41.2162 19.4023 40.888C19.2666 40.5598 19.2309 40.1987 19.2999 39.8503C19.3689 39.5019 19.5394 39.1816 19.7901 38.9299L32.6701 25.9999C33.0137 25.6991 33.4589 25.5401 33.9154 25.5552C34.3719 25.5703 34.8056 25.7584 35.1286 26.0814C35.4516 26.4044 35.6397 26.8381 35.6548 27.2946C35.6699 27.7511 35.5109 28.1963 35.2101 28.5399L22.3301 41.4599C21.9946 41.8006 21.5381 41.9947 21.0601 41.9999V41.9999Z" fill="white" stroke="white" stroke-width="0.75" stroke-miterlimit="10"/>
<path d="M33.9401 42.0002C33.4635 41.9976 33.0071 41.8072 32.6701 41.4702L19.7901 28.5702C19.4493 28.2334 19.2563 27.775 19.2534 27.2958C19.2506 26.8167 19.4383 26.356 19.7751 26.0152C20.1119 25.6744 20.5703 25.4814 21.0495 25.4785C21.5287 25.4757 21.9893 25.6634 22.3301 26.0002L35.2101 38.9202C35.4642 39.1714 35.6377 39.4925 35.7087 39.8426C35.7797 40.1928 35.7448 40.5561 35.6087 40.8864C35.4725 41.2167 35.2411 41.4989 34.9439 41.6973C34.6468 41.8956 34.2974 42.0011 33.9401 42.0002V42.0002Z" fill="white" stroke="white" stroke-width="0.75" stroke-miterlimit="10"/>
</svg>
