<svg width="24" height="24" viewBox="0 0 24 24" fill="none" xmlns="http://www.w3.org/2000/svg">
<g clip-path="url(#clip0_116_4455)">
<path d="M10.4962 20.9967C16.293 20.9967 20.9924 16.2975 20.9924 10.5005C20.9924 4.70362 16.2931 0.00439453 10.4962 0.00439453C4.69926 0.00439453 -1.90735e-05 4.70368 -1.90735e-05 10.5006C-1.90735e-05 16.2975 4.69931 20.9967 10.4962 20.9967ZM10.4962 3.00332C14.6368 3.00332 17.9934 6.35994 17.9934 10.5006C17.9934 14.6412 14.6368 17.9979 10.4962 17.9979C6.35553 17.9979 2.99891 14.6412 2.99891 10.5006C2.99891 6.35994 6.35558 3.00332 10.4962 3.00332Z" fill="white"/>
<path d="M22.4918 23.9955C22.8904 23.9979 23.2735 23.8414 23.5565 23.5607C24.1444 22.9775 24.1483 22.0281 23.5651 21.4401C23.5622 21.4373 23.5593 21.4344 23.5565 21.4315L17.9185 15.7935C17.3099 15.2055 16.3398 15.2223 15.7518 15.831C15.1638 16.4397 15.1806 17.4097 15.7892 17.9977L21.4272 23.5607C21.7102 23.8414 22.0933 23.9979 22.4918 23.9955Z" fill="white"/>
</g>
<defs>
<clipPath id="clip0_116_4455">
<rect width="24" height="24" fill="white" transform="matrix(-1 0 0 1 24 0)"/>
</clipPath>
</defs>
</svg>
